<svg width="15" height="16" viewBox="0 0 15 16" fill="none" xmlns="http://www.w3.org/2000/svg">
<path fill-rule="evenodd" clip-rule="evenodd" d="M15 8.22266C15 12.3648 11.6421 15.7227 7.5 15.7227C3.35786 15.7227 0 12.3648 0 8.22266C0 4.08052 3.35786 0.722656 7.5 0.722656C11.6421 0.722656 15 4.08052 15 8.22266ZM5.36942 7.87365L5.37205 7.87451C5.88351 7.97286 6.92236 7.64035 6.48738 6.65688C5.36942 3.59578 8.11258 2.06733 8.11258 2.06733C8.11258 2.06733 7.85148 3.18543 8.35816 4.26882C8.63155 4.76235 9.0653 5.16923 9.49546 5.57274C9.62084 5.69035 9.74591 5.80768 9.86662 5.92678C10.7727 6.82077 11.5686 7.75415 11.6417 9.2315C11.7867 13.7602 7.25218 14.3061 7.25218 14.3061C6.99725 13.663 6.36947 13.2352 5.75445 12.9792C4.76977 12.5858 3.20891 11.8996 3.20891 9.88939C3.20891 8.50174 3.77834 7.73826 4.26733 7.16643C4.40502 7.00542 4.52972 6.8596 4.62319 6.71932C4.65019 7.63743 5.09357 7.78305 5.36942 7.87365ZM4.63996 6.33734C4.63996 6.33734 4.71867 6.15625 4.47808 5.953C4.44215 5.91539 4.40005 5.88266 4.3563 5.84867C4.20217 5.72888 4.02773 5.59332 4.03195 5.17247C4.03845 4.53711 4.42416 4.07303 4.66625 3.78175C4.72674 3.70897 4.77828 3.64696 4.81268 3.59578C4.76113 4.14756 4.86421 4.26171 5.06605 4.48523C5.09629 4.51871 5.12873 4.55464 5.16321 4.59487C5.96402 5.52886 4.63996 6.33734 4.63996 6.33734ZM8.24809 8.63327H9.85329V10.1622H8.24809V11.7676H6.71915V10.1622H5.03712V8.63327H6.71915H8.24809Z" fill="url(#paint0_linear_1476_5622)"/>
<path fill-rule="evenodd" clip-rule="evenodd" d="M5.37205 7.87451L5.36942 7.87365C5.09357 7.78305 4.65019 7.63743 4.62319 6.71932C4.52972 6.8596 4.40502 7.00542 4.26733 7.16643C3.77834 7.73826 3.20891 8.50174 3.20891 9.88939C3.20891 11.8996 4.76977 12.5858 5.75445 12.9792C6.36947 13.2352 6.99725 13.663 7.25218 14.3061C7.25218 14.3061 11.7867 13.7602 11.6417 9.2315C11.5686 7.75415 10.7727 6.82077 9.86662 5.92678C9.74591 5.80768 9.62084 5.69035 9.49546 5.57274C9.0653 5.16923 8.63155 4.76235 8.35816 4.26882C7.85148 3.18543 8.11258 2.06733 8.11258 2.06733C8.11258 2.06733 5.36942 3.59578 6.48738 6.65688C6.92236 7.64035 5.88351 7.97286 5.37205 7.87451ZM8.24809 8.63327H9.85329V10.1622H8.24809V11.7676H6.71915V10.1622H5.03712V8.63327H6.71915H8.24809Z" fill="#F4F4F4"/>
<path d="M4.47808 5.953C4.71867 6.15625 4.63996 6.33734 4.63996 6.33734C4.63996 6.33734 5.96402 5.52886 5.16321 4.59487C5.12873 4.55464 5.09629 4.51871 5.06605 4.48523C4.86421 4.26171 4.76113 4.14756 4.81268 3.59578C4.77828 3.64696 4.72674 3.70897 4.66625 3.78175C4.42416 4.07303 4.03845 4.53711 4.03195 5.17247C4.02773 5.59332 4.20217 5.72888 4.3563 5.84867C4.40005 5.88266 4.44215 5.91539 4.47808 5.953Z" fill="#F4F4F4"/>
<defs>
<linearGradient id="paint0_linear_1476_5622" x1="11.5" y1="0.722656" x2="5.5" y2="14.7227" gradientUnits="userSpaceOnUse">
<stop stop-color="#FE590F"/>
<stop offset="1" stop-color="#FFA513"/>
</linearGradient>
</defs>
</svg>
