<svg width="17" height="17" viewBox="0 0 17 17" fill="none" xmlns="http://www.w3.org/2000/svg">
<path d="M12.9701 15.7323L15.6756 13.0268C16.3098 12.3926 16.666 11.5325 16.666 10.6357V6.80959C16.666 5.91277 16.3098 5.05269 15.6756 4.41855L12.9701 1.71306C12.336 1.07892 11.4759 0.722656 10.5791 0.722656H6.75295C5.85613 0.722656 4.99605 1.07891 4.36191 1.71306L1.65642 4.41855C1.02227 5.05269 0.666016 5.91277 0.666016 6.80959V10.6357C0.666016 11.5325 1.02227 12.3926 1.65642 13.0268L4.36191 15.7323C4.99605 16.3664 5.85613 16.7227 6.75295 16.7227H10.5791C11.4759 16.7227 12.336 16.3664 12.9701 15.7323Z" fill="#6C6C6C"/>
<path d="M9.56108 6.35846V13.7227H7.77713V6.35846H9.56108ZM7.66602 4.61772C7.66602 4.35846 7.75655 4.14447 7.93762 3.97574C8.11869 3.80702 8.36149 3.72266 8.66602 3.72266C8.96643 3.72266 9.20717 3.80702 9.38824 3.97574C9.57342 4.14447 9.66602 4.35846 9.66602 4.61772C9.66602 4.87698 9.57342 5.09097 9.38824 5.25969C9.20717 5.42842 8.96643 5.51278 8.66602 5.51278C8.36149 5.51278 8.11869 5.42842 7.93762 5.25969C7.75655 5.09097 7.66602 4.87698 7.66602 4.61772Z" fill="#262626"/>
</svg>
