<svg id="eOY2NZuQ5Bd1" xmlns="http://www.w3.org/2000/svg" xmlns:xlink="http://www.w3.org/1999/xlink" viewBox="0 0 169 169" shape-rendering="geometricPrecision" text-rendering="geometricPrecision">
<path id="Pathio_1" d="M81.42077,17.3961h-25.726285L17.810815,55.279228l.80179,52.055595l34.061852,34.825376" transform="matrix(-.706906 0 0 0.719756 143.189895 26.051344)" fill="none" stroke="#FF9719" stroke-width="17.5" stroke-dasharray="182.41" stroke-dashoffset="182.41" stroke-linecap="round"/>
<path id="Pathio_2" d="M81.42077,17.3961h-25.726285L17.810815,55.279228l.80179,52.055595l34.061852,34.825376" transform="matrix(.706906 0 0 0.719756 25.456305 26.051344)" fill="none" stroke="#FF9719" stroke-width="17.5" stroke-dasharray="182.41" stroke-dashoffset="182.41" stroke-linecap="round"/>
<path id="Pathio_3" d="M84.25,17.3961h-27.1409L16.3962,55.8323v56.3297l37.9417,37.951" transform="matrix(-1 0 0 1 168.6462 0)" fill="none" stroke="#FF9719" stroke-width="15" stroke-dasharray="193.12" stroke-dashoffset="0" stroke-linecap="round"/>
<path id="Pathio_4" d="M84.25,17.3961h-27.1409L16.3962,55.8323v56.3297l37.9417,37.951" fill="none" stroke="#FF9719" stroke-width="15" stroke-dasharray="193.12" stroke-dashoffset="0" stroke-linecap="round"/>
<animate 
    xlink:href="#Pathio_1"
    attributeName="stroke-dashoffset"
    from="365"
    to="0"
    dur="1.5s"
    begin="0s"
    fill="freeze"
    calcMode="spline"
    keyTimes="0; 1"
    keySplines="0.25 0.1 0.25 1"
	repeatCount="indefinite"
  />
  <animate 
    xlink:href="#Pathio_2"
    attributeName="stroke-dashoffset"
    from="365"
    to="0"
    dur="1.5s"
    begin="0s"
    fill="freeze"
    calcMode="spline"
    keyTimes="0; 1"
    keySplines="0.25 0.1 0.25 1"
	repeatCount="indefinite"
  />
  <animate 
    xlink:href="#Pathio_3"
    attributeName="stroke-dashoffset"
    from="387"
    to="0"
    dur="1.5s"
    begin="0s"
    fill="freeze"
    calcMode="spline"
    keyTimes="0; 1"
    keySplines="0.25 0.1 0.25 1"
	repeatCount="indefinite"
  />
  <animate 
    xlink:href="#Pathio_4"
    attributeName="stroke-dashoffset"
    from="387"
    to="0"
    dur="1.5s"
    begin="0s"
    fill="freeze"
    calcMode="spline"
    keyTimes="0; 1"
    keySplines="0.25 0.1 0.25 1"
	repeatCount="indefinite"
  />
<path d="M168.5,114.162c0,3.192-1.268,6.254-3.525,8.511l-42.302,42.302c-2.257,2.257-5.319,3.525-8.511,3.525h-59.8241c-3.1921,0-6.2534-1.268-8.5106-3.525L3.52518,122.673C1.26805,120.416,0,117.354,0,114.162l.000004-59.8241c0-3.1921,1.268046-6.2534,3.525186-8.5106L45.8273,3.52518C48.0845,1.26804,51.1458,0,54.3379,0h6.1319h53.6922c3.192,0,6.254,1.26805,8.511,3.52518L164.975,45.8273c2.257,2.2572,3.525,5.3185,3.525,8.5106v59.8241ZM125.016,96.1505c0,3.1921-1.268,6.2535-3.525,8.5105l-17.787,17.787c-1.555,1.555-2.02,3.892-1.178,5.924v0c1.482,3.578,6.126,4.502,8.865,1.763l20.971-20.971c2.257-2.257,3.525-5.318,3.525-8.511v-32.8064c0-3.1921-1.268-6.2534-3.525-8.5106L109.164,36.1381c-2.257-2.2572-5.318-3.5252-8.511-3.5252h-32.8064c-3.1921,0-6.2534,1.2681-8.5106,3.5252L36.1381,59.336c-2.2571,2.2572-3.5252,5.3185-3.5252,8.5106v32.8064c0,3.193,1.2681,6.254,3.5252,8.511l20.971,20.971c2.7391,2.739,7.3827,1.815,8.8652-1.763v0c.8413-2.032.3762-4.369-1.1783-5.924L47.0091,104.661c-2.2572-2.257-3.5252-5.3184-3.5252-8.5105v-23.801c0-3.1921,1.268-6.2534,3.5252-8.5106L63.8389,47.0091c2.2572-2.2572,5.3185-3.5252,8.5106-3.5252h23.801c3.1921,0,6.2535,1.268,8.5105,3.5252l16.83,16.8298c2.257,2.2572,3.525,5.3185,3.525,8.5106v23.801ZM10.871,58.8408c0-3.1921,1.268-6.2534,3.5252-8.5106l35.934-35.9341c2.2572-2.2571,5.3185-3.5251,8.5106-3.5251h10.5296h29.8491h10.4395c3.192,0,6.254,1.268,8.511,3.5251l35.934,35.9341c2.257,2.2572,3.525,5.3185,3.525,8.5106v50.8182c0,3.192-1.268,6.254-3.525,8.511l-33.707,33.707c-2.739,2.739-7.383,1.815-8.865-1.764v0c-.842-2.031-.377-4.369,1.178-5.923l30.523-30.523c2.257-2.257,3.525-5.319,3.525-8.511v-41.8085c0-3.1943-1.27-6.2576-3.53-8.5152L113.627,25.2625c-2.257-2.2543-5.317-3.5206-8.506-3.5206h-41.679c-3.1859,0-6.2418,1.2632-8.4979,3.5126L25.2798,54.831c-2.2649,2.2581-3.5379,5.3249-3.5379,8.5231v41.8019c0,3.192,1.2681,6.254,3.5252,8.511L55.7902,144.19c1.5545,1.554,2.0196,3.892,1.1783,5.923v0c-1.4825,3.579-6.1261,4.503-8.8652,1.764L14.3961,118.17c-2.2571-2.257-3.5251-5.319-3.5251-8.511v-50.8182Z" clip-rule="evenodd" fill="#f4f4f4" fill-rule="evenodd"/></svg>
