<svg width="33" height="33" viewBox="0 0 33 33" fill="none" xmlns="http://www.w3.org/2000/svg">
<path fill-rule="evenodd" clip-rule="evenodd" d="M7.73553 30.7419L2.32455 25.3309C1.05626 24.0626 0.34375 22.3424 0.34375 20.5488V12.8965C0.34375 11.1029 1.05626 9.38272 2.32455 8.11444L7.73553 2.70346C9.00381 1.43517 10.724 0.722656 12.5176 0.722656H20.1699C21.9635 0.722656 23.6837 1.43517 24.952 2.70346L30.3629 8.11444C31.6312 9.38272 32.3438 11.1029 32.3438 12.8965V20.5488C32.3438 22.3424 31.6312 24.0626 30.3629 25.3309L24.952 30.7419C23.6837 32.0101 21.9635 32.7227 20.1699 32.7227H12.5176C10.724 32.7227 9.00382 32.0101 7.73553 30.7419ZM13.7305 10.7223C13.0841 10.0759 13.0841 9.02787 13.7305 8.38149C14.3769 7.7351 15.4249 7.7351 16.0713 8.38149L20.2944 12.6047L20.9824 13.3456C22.7514 15.2507 22.7514 18.1979 20.9824 20.103L20.2944 20.8439L16.0713 25.0671C15.4249 25.7135 14.3769 25.7135 13.7305 25.0671C13.0841 24.4207 13.0841 23.3727 13.7305 22.7263L17.9103 18.5465L18.5565 17.8505C19.1462 17.2155 19.1462 16.2331 18.5565 15.598L17.9103 14.9021L13.7305 10.7223Z" fill="#6C6C6C"/>
</svg>
