<svg width="33" height="33" viewBox="0 0 33 33" fill="none" xmlns="http://www.w3.org/2000/svg">
<path fill-rule="evenodd" clip-rule="evenodd" d="M24.952 30.7419L30.3629 25.3309C31.6312 24.0626 32.3438 22.3424 32.3438 20.5488V12.8965C32.3438 11.1029 31.6312 9.38272 30.3629 8.11444L24.952 2.70346C23.6837 1.43517 21.9635 0.722656 20.1699 0.722656H12.5176C10.724 0.722656 9.00382 1.43517 7.73553 2.70346L2.32456 8.11444C1.05627 9.38272 0.34375 11.1029 0.34375 12.8965V20.5488C0.34375 22.3424 1.05627 24.0626 2.32455 25.3309L7.73553 30.7419C9.00382 32.0101 10.724 32.7227 12.5176 32.7227H20.1699C21.9635 32.7227 23.6837 32.0101 24.952 30.7419ZM18.957 10.7223C19.6034 10.0759 19.6034 9.02787 18.957 8.38149C18.3106 7.7351 17.2626 7.7351 16.6162 8.38149L12.3931 12.6047L11.7051 13.3456C9.9361 15.2507 9.9361 18.1979 11.7051 20.103L12.3931 20.8439L16.6162 25.0671C17.2626 25.7135 18.3106 25.7135 18.957 25.0671C19.6034 24.4207 19.6034 23.3727 18.957 22.7263L14.7772 18.5465L14.131 17.8505C13.5413 17.2155 13.5413 16.2331 14.131 15.598L14.7772 14.9021L18.957 10.7223Z" fill="#6C6C6C"/>
</svg>
