<svg width="18" height="19" viewBox="0 0 18 19" fill="none" xmlns="http://www.w3.org/2000/svg">
<path d="M7.05264 2.47905C8.1591 1.4811 9.8409 1.4811 10.9474 2.47905C11.4433 2.92634 12.0781 3.18927 12.745 3.22366C14.2331 3.30039 15.4223 4.4896 15.499 5.97765C15.5334 6.64459 15.7963 7.27938 16.2436 7.77529C17.2416 8.88175 17.2416 10.5636 16.2436 11.67C15.7963 12.1659 15.5334 12.8007 15.499 13.4677C15.4223 14.9557 14.2331 16.1449 12.745 16.2217C12.0781 16.256 11.4433 16.519 10.9474 16.9663C9.8409 17.9642 8.1591 17.9642 7.05264 16.9663C6.55672 16.519 5.92194 16.256 5.25499 16.2217C3.76695 16.1449 2.57773 14.9557 2.50101 13.4677C2.46662 12.8007 2.20368 12.1659 1.7564 11.67C0.758441 10.5636 0.758441 8.88175 1.7564 7.77529C2.20368 7.27938 2.46662 6.64459 2.50101 5.97765C2.57773 4.4896 3.76695 3.30039 5.25499 3.22366C5.92194 3.18927 6.55672 2.92634 7.05264 2.47905Z" fill="#F78C09"/>
<path d="M11 8.72461L9.62742 11.1392V11.1392C9.18352 11.8643 8.13019 11.8643 7.68629 11.1392V11.1392L7 9.93192" stroke="#262626" stroke-width="1.62887" stroke-linecap="round"/>
</svg>
